<mxfile host="app.diagrams.net" modified="2023-10-19T15:09:43.268Z" agent="Mozilla/5.0 (Windows NT 10.0; Win64; x64) AppleWebKit/537.36 (KHTML, like Gecko) Chrome/118.0.0.0 Safari/537.36" version="22.0.5" etag="26Iir1Sc5ZtX6mHSaR4P" type="github">
  <diagram name="Page-1" id="uRdkJyPrnBxdYp1wt99x">
    <mxGraphModel>
      <root>
        <mxCell id="0" />
        <mxCell id="1" parent="0" />
      </root>
    </mxGraphModel>
  </diagram>
</mxfile>
